<svg width="16" height="16" xmlns="http://www.w3.org/2000/svg">

 <g>
  <title>background</title>
  <rect fill="none" id="canvas_background" height="402" width="582" y="-1" x="-1"/>
 </g>
 <g>
  <title>Layer 1</title>
  <rect stroke="null" x="0" y="0" id="svg_1" width="3.5" height="3.5"/>
  <rect stroke="null" x="12.5" y="-0.019417" id="svg_3" width="3.5" height="3.5"/>
  <rect stroke="null" x="4.2" y="0" id="svg_5" width="3.5" height="3.5"/>
  <rect stroke="null" x="8.4" y="0" id="svg_6" width="3.5" height="3.5"/>
  <rect stroke="null" x="0" y="4.2" id="svg_7" width="3.5" height="3.5"/>
  <rect stroke="null" x="12.5" y="4.2" id="svg_8" width="3.5" height="3.5"/>
  <rect stroke="null" x="4.2" y="4.2" id="svg_9" width="3.5" height="3.5"/>
  <rect stroke="null" x="8.4" y="4.2" id="svg_10" width="3.5" height="3.5"/>
  <rect stroke="null" x="0" y="8.4" id="svg_11" width="3.5" height="3.5"/>
  <rect stroke="null" x="12.5" y="8.4" id="svg_12" width="3.5" height="3.5"/>
  <rect stroke="null" x="4.2" y="8.4" id="svg_13" width="3.5" height="3.5"/>
  <rect stroke="null" x="8.4" y="8.4" id="svg_14" width="3.5" height="3.5"/>
  <rect stroke="null" x="0" y="12.5" id="svg_15" width="3.5" height="3.5"/>
  <rect stroke="null" x="12.5" y="12.5" id="svg_16" width="3.5" height="3.5"/>
  <rect stroke="null" x="4.2" y="12.5" id="svg_17" width="3.5" height="3.5"/>
  <rect stroke="null" x="8.4" y="12.5" id="svg_18" width="3.5" height="3.5"/>
 </g>
</svg>