<svg width="16" height="16" xmlns="http://www.w3.org/2000/svg">

 <g>
  <title>background</title>
  <rect fill="none" id="canvas_background" height="402" width="582" y="-1" x="-1"/>
 </g>
 <g>
  <title>Layer 1</title>
  <rect stroke="null" x="5.662622" y="5.75" id="svg_24" width="4.674757" height="4.5"/>
  <rect stroke="null" x="0" y="5.75" id="svg_30" width="4.674757" height="4.5"/>
  <rect stroke="null" x="11.325243" y="5.75" id="svg_31" width="4.674757" height="4.5"/>
  <rect stroke="null" x="5.662622" y="5.75" id="svg_32" width="4.674757" height="4.5"/>
  <rect stroke="null" x="5.662622" y="5.75" id="svg_33" width="4.674757" height="4.5"/>
  <rect stroke="null" x="5.662622" y="5.75" id="svg_34" width="4.674757" height="4.5"/>
  <rect stroke="null" x="5.662622" y="5.75" id="svg_35" width="4.674757" height="4.5"/>
  <rect stroke="null" x="0" y="0" id="svg_36" width="4.674757" height="4.5"/>
  <rect stroke="null" x="11.325243" y="0" id="svg_37" width="4.674757" height="4.5"/>
  <rect stroke="null" x="5.662622" y="5.75" id="svg_38" width="4.674757" height="4.5"/>
  <rect stroke="null" x="5.662622" y="5.75" id="svg_39" width="4.674757" height="4.5"/>
  <rect stroke="null" x="5.662622" y="5.75" id="svg_40" width="4.674757" height="4.5"/>
  <rect stroke="null" x="5.662622" y="5.75" id="svg_47" width="4.674757" height="4.5"/>
  <rect stroke="null" x="5.662622" y="5.75" id="svg_48" width="4.674757" height="4.5"/>
  <rect stroke="null" x="5.662622" y="5.75" id="svg_49" width="4.674757" height="4.5"/>
  <rect stroke="null" x="5.662622" y="5.75" id="svg_50" width="4.674757" height="4.5"/>
  <rect stroke="null" x="5.662622" y="5.75" id="svg_51" width="4.674757" height="4.5"/>
  <rect stroke="null" x="5.662622" y="5.75" id="svg_52" width="4.674757" height="4.5"/>
  <rect stroke="null" x="5.662622" y="5.75" id="svg_53" width="4.674757" height="4.5"/>
  <rect stroke="null" x="5.662622" y="5.75" id="svg_54" width="4.674757" height="4.5"/>
  <rect stroke="null" x="5.662622" y="5.75" id="svg_55" width="4.674757" height="4.5"/>
  <rect stroke="null" x="5.662622" y="5.75" id="svg_56" width="4.674757" height="4.5"/>
  <rect stroke="null" x="5.662622" y="5.75" id="svg_57" width="4.674757" height="4.5"/>
  <rect stroke="null" x="5.662622" y="5.75" id="svg_58" width="4.674757" height="4.5"/>
  <rect stroke="null" x="5.662622" y="0" id="svg_83" width="4.674757" height="4.5"/>
  <rect stroke="null" x="0" y="11.5" id="svg_84" width="4.674757" height="4.5"/>
  <rect stroke="null" x="5.662622" y="11.5" id="svg_85" width="4.674757" height="4.5"/>
  <rect stroke="null" x="11.325243" y="11.5" id="svg_86" width="4.674757" height="4.5"/>
 </g>
</svg>